# xmcd
#
# Track frame offsets:
# 150
# 25587
# 41868
# 65302
# 81841
# 104123
# 126152
# 144750
# 159769
# 178113
# 195653
# 211354
# 230873
# 246677
# 264410
# 283089
# 296497
#
# Disc length: 4206 seconds
#
#
# Revision: 0
# Processed by: cddbd v1.5.2PL0 Copyright (c) Steve Scherf et al.
# Submitted via: FreeRIP 2.10 
#
DISCID=02106c11
DTITLE=VARIOS - HOUSE OF BLUES VOL.1
DYEAR=1900
DGENRE=Blues
TTITLE0=ROAD HOUSE BLUES
TTITLE1=PAYING THE COST TO BE THE BOOS
TTITLE2=HELL HOUND
TTITLE3=RIOT IN CELL BLOCK # 9
TTITLE4=DANGEROUS MOOD
TTITLE5=BAD TO THE BONE
TTITLE6=HIGHGATE SHUFLE
TTITLE7=HOOCHIE COOCHIE MAN
TTITLE8=BABY PLEASE DON큈 GO
TTITLE9=LA GRANJA
TTITLE10=BEFORE DON큈 ACUSE ME
TTITLE11=WHEN LOVE COMES THE TOWN
TTITLE12=SONG OF JEFREY
TTITLE13=OPEN UP YOUR BACK DOOR
TTITLE14=LET IT BLEED
TTITLE15=TROUBLE IN MIND
TTITLE16=SHE CAUGHT THE KATY
EXTD=ORDEN DE LOS TITULOS CAMBIADOS\n
EXTT0=ROAD HOUSE BLUES
EXTT1=PAYING THE COST TO BE THE BOS
EXTT2=HELL HOUND
EXTT3=RIOT IN CELL BLOCK # 9
EXTT4=DANGEROUS MOOD
EXTT5=BAD TO THE BONE
EXTT6=HIGHGATE SHUFLE
EXTT7=HOOCHIE COOCHIE MAN
EXTT8=BABY PLEASE DON큈 GO
EXTT9=LA GRANJA
EXTT10=BEFORE DON큈 ACUSE ME
EXTT11=WHEN LOVE COMES THE TOWN
EXTT12=SONG OF JEFREY
EXTT13=OPEN UP YOUR BACK DOOR
EXTT14=LET IT BLEED
EXTT15=TROUBLE IN MIND
EXTT16=SHE CAUGHT THE CATY
PLAYORDER=
